<svg width="110" height="56" viewBox="0 0 110 56" fill="none" xmlns="http://www.w3.org/2000/svg">
<g opacity="0.75">
<path opacity="0.75" d="M73.2 53.7C54.7 54 36.3 56.3 17.9 55.1C8.29999 54.4 -2.00001 52.9 -8.80001 44.7C-15.3 36.9 -16.9 23.6 -12.5 13.9C-8.10001 4.10003 1.89999 -1.29997 10.8 1.30003C20.3 4.10003 28.9 14.7 38.2 11.2C44.7 8.60003 49.4 -0.599975 56.3 2.54139e-05C63.4 0.700025 66.7 11.4 72.8 15.8C78 19.6 84.6 18.3 90.7 17.6C96.8 16.9 103.8 17.5 107.5 23.4C111.7 30.2 108.8 40.8 103.2 45.7C103.1 45.8 91.6 53.4 73.2 53.7Z" fill="url(#paint0_linear)"/>
</g>
<defs>
<linearGradient id="paint0_linear" x1="45.624" y1="118.979" x2="47.2969" y2="26.1402" gradientUnits="userSpaceOnUse">
<stop stop-color="white" stop-opacity="0"/>
<stop offset="1" stop-color="white"/>
</linearGradient>
</defs>
</svg>
