<svg width="24" height="24" viewBox="0 0 24 24" fill="none" xmlns="http://www.w3.org/2000/svg">
<path d="M12 24C18.6274 24 24 18.6274 24 12C24 5.37258 18.6274 0 12 0C5.37258 0 0 5.37258 0 12C0 18.6274 5.37258 24 12 24Z" fill="white"/>
<path d="M6.20813 17.5518C6.21234 17.6065 6.21264 17.679 6.2243 17.7497C6.27251 18.0422 6.47342 18.2318 6.74203 18.2432C7.02681 18.2552 7.21229 18.1046 7.28982 17.7964C7.33378 17.6215 7.32953 17.4461 7.28819 17.2714C7.22411 17.0006 7.07048 16.8724 6.80047 16.8629C6.5133 16.8529 6.32975 16.9797 6.24671 17.2396C6.21573 17.3365 6.21709 17.4357 6.20813 17.5518ZM7.52284 16.3396C7.59333 15.9309 7.79035 15.7904 8.15004 15.8755C8.35909 15.925 8.47022 16.0689 8.47686 16.3331C8.48573 16.687 8.48191 17.0412 8.48237 17.3954C8.48294 17.8104 8.48576 18.2254 8.48105 18.6403C8.47666 19.0231 8.22263 19.2159 7.85032 19.1274C7.63968 19.0774 7.56833 18.9758 7.52788 18.6485C7.32422 18.9331 7.04667 19.0659 6.72357 19.0994C6.23114 19.1506 5.83562 18.9679 5.54131 18.5716C5.03801 17.894 5.12457 16.8301 5.73226 16.2804C6.12339 15.9266 6.58073 15.8556 7.07798 16.002C7.26239 16.0563 7.4058 16.1733 7.52284 16.3396Z" fill="#FE653E"/>
<path d="M10.0247 19.1405C9.73827 19.1432 9.46365 19.0892 9.20247 18.9728C8.9902 18.8781 8.8116 18.7431 8.70718 18.5281C8.61338 18.335 8.64874 18.1429 8.79444 18.0352C8.97081 17.9049 9.18009 17.912 9.33731 18.0686C9.50233 18.233 9.68216 18.3596 9.92039 18.39C10.032 18.4042 10.1406 18.4002 10.25 18.3786C10.3582 18.3573 10.4596 18.3257 10.4695 18.1933C10.4792 18.0642 10.3906 18.0061 10.2863 17.9689C10.0731 17.8928 9.85876 17.82 9.6447 17.7464C9.46109 17.6832 9.28425 17.606 9.12507 17.4933C8.61411 17.131 8.61142 16.4768 9.1189 16.1107C9.60861 15.7573 10.415 15.7227 10.9299 16.0344C11.0945 16.134 11.2271 16.2649 11.3027 16.4449C11.3663 16.5966 11.3279 16.7134 11.1919 16.8024C10.978 16.9423 10.8254 16.9443 10.6113 16.789C10.4248 16.6538 10.2299 16.5678 9.9941 16.6081C9.87978 16.6276 9.7638 16.6588 9.75056 16.7913C9.73777 16.9193 9.84894 16.9686 9.94904 17.0035C10.1836 17.0855 10.421 17.1591 10.6563 17.2385C10.8521 17.3045 11.0319 17.4002 11.1833 17.5431C11.5977 17.9344 11.5589 18.5137 11.0927 18.8406C10.7729 19.0649 10.4064 19.1326 10.0247 19.1405Z" fill="#FE653E"/>
<path d="M12.5933 17.8646C12.5933 18.1344 12.6022 18.4046 12.591 18.6739C12.5772 19.0058 12.4066 19.1527 12.0777 19.1383C11.8577 19.1287 11.7151 19.0096 11.6722 18.7948C11.6593 18.73 11.6506 18.663 11.6504 18.5971C11.6478 17.8227 11.6195 17.0479 11.6644 16.2743C11.6873 15.88 12.0456 15.6966 12.3975 15.8813C12.5416 15.9568 12.5929 16.0857 12.5951 16.2387C12.5977 16.4132 12.5957 16.5879 12.5957 16.8108C12.7787 16.604 12.9306 16.4325 13.0823 16.2607C13.1775 16.153 13.2677 16.0399 13.3907 15.9611C13.589 15.834 13.8003 15.8729 13.9659 16.0657C14.104 16.2265 14.104 16.4187 13.9516 16.5905C13.7681 16.7974 13.5818 17.0026 13.3844 17.196C13.2916 17.287 13.3026 17.3479 13.3712 17.4429C13.6076 17.7701 13.8365 18.1026 14.0666 18.4343C14.2279 18.667 14.1973 18.9194 13.9933 19.0633C13.7928 19.2046 13.5268 19.1565 13.3676 18.9324C13.1152 18.5771 12.8741 18.2138 12.6282 17.8539C12.6166 17.8574 12.6049 17.861 12.5933 17.8646Z" fill="#FE653E"/>
<path d="M15.9276 17.2942C16.0955 17.1502 16.2688 17.095 16.4654 17.1036C16.5998 17.1094 16.7197 17.1438 16.7964 17.2588C16.8456 17.3326 16.8812 17.3191 16.9369 17.2704C17.1054 17.1232 17.3015 17.0707 17.5227 17.1094C17.7106 17.1422 17.8187 17.2457 17.8431 17.4361C17.8808 17.7318 17.7959 18.0179 17.7644 18.3081C17.7417 18.5166 17.7047 18.7236 17.6759 18.9315C17.6652 19.0091 17.6633 19.1026 17.577 19.1252C17.4606 19.1556 17.3311 19.1706 17.2204 19.1154C17.1456 19.0781 17.1793 18.9862 17.1888 18.9166C17.2396 18.5445 17.2972 18.1733 17.3407 17.8003C17.3534 17.6918 17.4114 17.5417 17.2233 17.508C17.0661 17.4797 16.894 17.6105 16.8691 17.7795C16.8145 18.1512 16.7632 18.5233 16.714 18.8957C16.6851 19.1137 16.4625 19.233 16.2681 19.1288C16.1838 19.0837 16.2106 19.0032 16.2196 18.936C16.2651 18.5965 16.3159 18.2578 16.3635 17.9186C16.3734 17.8476 16.3821 17.7759 16.3828 17.7044C16.3846 17.529 16.2916 17.4591 16.1278 17.5223C15.9957 17.5733 15.8962 17.6502 15.8775 17.8179C15.8349 18.202 15.7682 18.5833 15.7191 18.9667C15.6938 19.1638 15.6 19.1548 15.3276 19.1363C15.1699 19.1255 15.2282 18.9967 15.241 18.9041C15.2981 18.4882 15.3585 18.0727 15.4124 17.6564C15.4199 17.5988 15.4693 17.4899 15.3392 17.5066C15.2458 17.5187 15.1001 17.4158 15.0741 17.621C15.0192 18.0537 14.9517 18.4849 14.887 18.9164C14.8581 19.1094 14.7994 19.2922 14.6871 19.4551C14.5644 19.633 14.3877 19.7127 14.1804 19.7287C14.0692 19.7373 13.9641 19.7054 13.9304 19.5837C13.8967 19.4622 13.9408 19.3617 14.0623 19.3143C14.2705 19.2331 14.3728 19.0744 14.4046 18.8633C14.4671 18.4483 14.5263 18.0328 14.5874 17.6176C14.5974 17.5501 14.5967 17.4985 14.5026 17.5011C14.4233 17.5034 14.3519 17.4683 14.3651 17.3758C14.379 17.2782 14.3652 17.1363 14.5115 17.1361C14.653 17.1358 14.6642 17.0545 14.6896 16.9535C14.7898 16.5538 15.2681 16.2989 15.6613 16.4269C15.7839 16.4668 15.7554 16.5597 15.7482 16.6451C15.7409 16.7307 15.7269 16.8147 15.6098 16.8127C15.5379 16.8115 15.4656 16.8088 15.3943 16.815C15.3129 16.8221 15.2476 16.8637 15.2055 16.9347C15.1775 16.9817 15.139 17.0343 15.1606 17.0884C15.1876 17.156 15.2573 17.1214 15.3074 17.1231C15.44 17.1279 15.5729 17.1254 15.7056 17.1249C15.8151 17.1245 15.9196 17.1309 15.9276 17.2942Z" fill="#FE653E"/>
<path d="M11.5936 9.75355C11.3442 9.74877 11.1547 9.98143 11.2157 10.2222C11.263 10.4087 11.3126 10.595 11.3691 10.7789C11.3904 10.8481 11.3846 10.9541 11.4756 10.9671C11.5777 10.9816 11.599 10.8707 11.6389 10.8049C11.7387 10.6402 11.8308 10.4707 11.9216 10.3008C12.0476 10.065 11.8627 9.75873 11.5936 9.75355ZM9.7597 5.3222C9.57991 5.15213 9.53352 4.94348 9.41621 4.77723C9.25325 4.54624 9.03517 4.55617 8.89038 4.79858C8.8679 4.83624 8.84993 4.87701 8.83347 4.91782C8.68664 5.28205 8.54058 5.64662 8.39432 6.0111C8.8072 5.71356 9.20106 5.39199 9.7597 5.3222ZM14.4381 5.89249C15.0033 6.09553 15.4135 6.44739 15.7421 6.9098C15.6697 6.46521 15.5862 6.02926 15.4935 5.59526C15.4596 5.43655 15.3705 5.30716 15.1999 5.27047C15.0288 5.23368 14.9207 5.34644 14.8233 5.46139C14.7061 5.59961 14.6208 5.7647 14.4381 5.89249ZM15.0268 8.97424C15.0287 8.52663 14.9346 8.10618 14.6706 7.73666C14.2434 7.13881 13.5555 7.08276 13.0317 7.59983C12.3517 8.27113 12.2223 9.60769 12.7609 10.3986C13.2066 11.0532 13.9656 11.1003 14.4867 10.5025C14.8678 10.0653 15.0206 9.54514 15.0268 8.97424ZM11.1418 8.25353C11.1465 7.89624 11.0742 7.55873 10.897 7.24921C10.5445 6.63322 9.8796 6.50097 9.31594 6.93046C8.5357 7.52496 8.25317 8.87294 8.72881 9.73151C9.08093 10.3671 9.75834 10.5155 10.3266 10.0644C10.9066 9.60414 11.1115 8.96531 11.1418 8.25353ZM16.5205 8.93974C16.5649 9.38722 16.4444 9.81906 16.401 10.2581C16.364 10.6317 16.349 11.0078 16.2491 11.3729C16.1907 11.5867 16.1234 11.7971 16.0098 11.9885C15.9708 12.0541 15.9612 12.1205 15.9591 12.1935C15.9506 12.4835 15.8554 12.7355 15.6184 12.9169C15.5584 12.9629 15.5473 13.0262 15.5275 13.0879C15.3953 13.5007 15.1776 13.6386 14.7578 13.5638C14.6633 13.547 14.6311 13.5965 14.5942 13.6639C14.3985 14.0214 14.1256 14.2334 13.6908 14.1357C13.579 14.1106 13.5672 14.204 13.5406 14.2731C13.4274 14.5663 13.245 14.7935 12.9327 14.8836C12.5825 14.9847 12.2884 14.8563 12.0388 14.621C11.9278 14.5162 11.8685 14.5193 11.7609 14.6285C11.4683 14.9256 11.0407 14.9025 10.6884 14.5943C10.6109 14.5264 10.5642 14.3949 10.4555 14.3986C10.3511 14.4023 10.329 14.5391 10.2639 14.6116C9.94125 14.9706 9.44922 14.9551 9.12469 14.5698C8.92647 14.3344 8.82028 14.057 8.78519 13.7554C8.77025 13.6273 8.72672 13.5902 8.60499 13.6291C8.273 13.7351 8.00694 13.6162 7.79122 13.3679C7.58991 13.1361 7.48243 12.8579 7.45265 12.5544C7.44166 12.4424 7.41088 12.3784 7.29722 12.3368C6.95012 12.2096 6.8625 11.9098 6.82441 11.5834C6.82378 11.5779 6.82302 11.5723 6.82368 11.5669C6.86333 11.2404 6.81435 10.9221 6.75429 10.6013C6.68074 10.2086 6.73832 9.81969 6.84719 9.43819C6.94019 9.11247 6.99176 8.77814 7.00663 8.44206C7.03465 7.80732 7.21574 7.21298 7.45673 6.63478C7.80942 5.78857 8.14427 4.93545 8.47823 4.08186C8.56824 3.8518 8.69521 3.64524 8.88958 3.48929C9.1734 3.26161 9.48232 3.28007 9.73775 3.537C9.93783 3.73824 10.0492 3.99078 10.1351 4.25555C10.2299 4.54803 10.3746 4.81323 10.5633 5.05471C10.6024 5.10472 10.6367 5.1502 10.7239 5.1426C11.6898 5.05803 12.6308 5.19702 13.5516 5.48426C13.6803 5.5244 13.7685 5.50724 13.8646 5.42287C14.0694 5.24301 14.2571 5.04914 14.4001 4.81582C14.5224 4.61637 14.6645 4.43348 14.8445 4.28314C15.221 3.96861 15.627 4.04268 15.8765 4.4631C16.0462 4.74908 16.0704 5.07002 16.1127 5.38674C16.241 6.34482 16.3655 7.30336 16.4943 8.26134C16.5247 8.48725 16.5177 8.7138 16.5205 8.93974Z" fill="#FE6648"/>
<path d="M8.90334 8.57152C8.91566 8.48988 8.92804 8.40826 8.94029 8.32658C8.95855 8.20489 8.98927 8.12673 9.15239 8.13245C9.34972 8.13935 9.51487 7.91257 9.49409 7.67995C9.48399 7.56733 9.52556 7.53847 9.61498 7.51128C9.99758 7.3951 10.3876 7.57194 10.5733 7.966C10.7708 8.38532 10.7318 8.79608 10.4726 9.17665C10.2664 9.47923 9.97527 9.641 9.60409 9.56476C9.23308 9.48856 9.04558 9.21244 8.9473 8.86789C8.92017 8.77283 8.90075 8.67389 8.90334 8.57152Z" fill="#FE653E"/>
<path d="M14.5995 8.93275C14.6008 9.29244 14.488 9.57872 14.2582 9.81572C13.7906 10.298 13.0854 10.1399 12.8687 9.50248C12.7745 9.22537 12.7935 8.94736 12.8993 8.67553C12.9207 8.62057 12.9363 8.57253 13.0241 8.57718C13.2832 8.59086 13.4693 8.43039 13.484 8.17017C13.491 8.04699 13.5507 8.02597 13.6452 8.01276C14.1179 7.94645 14.5223 8.27423 14.5877 8.77975C14.5955 8.83995 14.5972 8.90094 14.5995 8.93275Z" fill="#FE653E"/>
</svg>
