<svg width="26" height="26" viewBox="0 0 26 26" fill="none" xmlns="http://www.w3.org/2000/svg">
<path fill-rule="evenodd" clip-rule="evenodd" d="M16.2122 15.4429H17.068L22.4739 20.8596L20.8597 22.4738L15.443 17.0679V16.2121L15.1505 15.9088C13.9155 16.9704 12.3122 17.6096 10.568 17.6096C6.67887 17.6096 3.52637 14.4571 3.52637 10.5679C3.52637 6.67875 6.67887 3.52625 10.568 3.52625C14.4572 3.52625 17.6097 6.67875 17.6097 10.5679C17.6097 12.3121 16.9705 13.9154 15.9089 15.1504L16.2122 15.4429ZM5.69303 10.5679C5.69303 13.2654 7.87053 15.4429 10.568 15.4429C13.2655 15.4429 15.443 13.2654 15.443 10.5679C15.443 7.87042 13.2655 5.69292 10.568 5.69292C7.87053 5.69292 5.69303 7.87042 5.69303 10.5679Z" fill="white"/>
</svg>
