<svg width="24" height="24" viewBox="0 0 24 24" fill="none" xmlns="http://www.w3.org/2000/svg">
<path d="M0 12C0 5.37258 5.37258 0 12 0C18.6274 0 24 5.37258 24 12C24 18.6274 18.6274 24 12 24C5.37258 24 0 18.6274 0 12Z" fill="#FFE400"/>
<path d="M12.123 6H12.1225C12.1114 6 12.1011 6 12.0912 6.00013C12.0124 6.00093 11.8828 6.00218 11.8711 6.00232C11.587 6.00232 11.0185 6.04234 10.4078 6.31111C10.0586 6.46468 9.74453 6.67232 9.47431 6.9283C9.15214 7.23328 8.88969 7.60932 8.69437 8.04611C8.40833 8.68566 8.47624 9.76289 8.53077 10.6286L8.53097 10.6299C8.53681 10.7226 8.54294 10.8195 8.54855 10.9138C8.50659 10.933 8.43855 10.9533 8.33827 10.9533C8.17693 10.9533 7.98506 10.9018 7.76815 10.8005C7.70433 10.7709 7.63148 10.7559 7.55111 10.7559C7.42197 10.7559 7.28583 10.7938 7.16774 10.863C7.01916 10.95 6.92316 11.0729 6.89709 11.2092C6.87991 11.2994 6.88074 11.4776 7.07927 11.6583C7.18847 11.7578 7.34889 11.8496 7.55595 11.9312C7.61028 11.9525 7.67477 11.9729 7.74307 11.9945C7.98008 12.0696 8.3388 12.1831 8.43235 12.4026C8.47975 12.5139 8.45935 12.6604 8.37188 12.8374C8.36959 12.8422 8.3673 12.8469 8.36521 12.8519C8.34335 12.9028 8.13941 13.3634 7.72108 13.8492C7.48337 14.1254 7.22154 14.3563 6.9433 14.5356C6.60369 14.7544 6.23621 14.8975 5.85118 14.9608C5.69999 14.9855 5.59201 15.1198 5.60044 15.2725C5.60302 15.3165 5.61337 15.3603 5.63132 15.4028C5.63145 15.403 5.63162 15.4033 5.63175 15.4035C5.69289 15.5461 5.83463 15.6672 6.06507 15.7741C6.34667 15.9045 6.76782 16.0142 7.31671 16.1C7.34445 16.1526 7.37324 16.2848 7.39318 16.3753C7.41404 16.4715 7.4358 16.5703 7.46682 16.6754C7.50029 16.7892 7.5871 16.9252 7.81011 16.9252C7.89463 16.9252 7.99183 16.9062 8.10438 16.8845C8.26921 16.8522 8.49461 16.8082 8.77594 16.8082C8.93192 16.8082 9.09356 16.8219 9.25627 16.8489C9.56991 16.9009 9.84029 17.0914 10.1531 17.3119C10.611 17.6347 11.1294 18 11.9213 18C11.9429 18 11.9645 17.9993 11.9859 17.9978C12.0121 17.999 12.0445 18 12.0788 18C12.8709 18 13.3891 17.6346 13.8465 17.3121L13.8472 17.3114C14.1601 17.0911 14.4302 16.9009 14.7438 16.8489C14.9064 16.822 15.068 16.8082 15.2241 16.8082C15.4928 16.8082 15.7056 16.8424 15.8956 16.8793C16.0196 16.9037 16.116 16.9154 16.1899 16.9154L16.1971 16.9155H16.2046C16.3677 16.9155 16.4876 16.8263 16.5333 16.67C16.5637 16.5672 16.5854 16.4706 16.6068 16.3728C16.6255 16.288 16.6552 16.1521 16.683 16.0989C17.2322 16.0129 17.6532 15.9034 17.9349 15.7731C18.1648 15.6667 18.3063 15.5457 18.3678 15.4037C18.3863 15.3612 18.3971 15.3171 18.3995 15.2721C18.4081 15.1198 18.3 14.9852 18.1487 14.9604C16.4375 14.6792 15.6667 12.9261 15.6348 12.8516C15.6327 12.8467 15.6304 12.8419 15.628 12.8371C15.5405 12.66 15.5203 12.5137 15.5677 12.4022C15.6611 12.1829 16.0196 12.0694 16.2568 11.9944C16.3254 11.9728 16.3901 11.9523 16.444 11.9311C16.6775 11.8391 16.8444 11.7393 16.9545 11.6261C17.086 11.491 17.1116 11.3616 17.11 11.277C17.106 11.0721 16.949 10.89 16.6991 10.8009C16.6147 10.7661 16.5185 10.7477 16.4205 10.7477C16.3538 10.7477 16.255 10.7569 16.1615 10.8004C15.9613 10.8938 15.782 10.9449 15.628 10.9522C15.5461 10.948 15.4887 10.9303 15.4515 10.9134C15.4562 10.8335 15.4614 10.7514 15.4667 10.6658L15.469 10.6292C15.5238 9.76293 15.5919 8.68487 15.3058 8.04486C15.1096 7.60651 14.8462 7.22951 14.5228 6.92386C14.2515 6.66773 13.9364 6.46011 13.5859 6.30664C12.9761 6.03986 12.4076 6 12.123 6Z" fill="white"/>
</svg>
