<svg width="24" height="24" viewBox="0 0 24 24" fill="none" xmlns="http://www.w3.org/2000/svg">
<path d="M12 24C18.6274 24 24 18.6274 24 12C24 5.37258 18.6274 0 12 0C5.37258 0 0 5.37258 0 12C0 18.6274 5.37258 24 12 24Z" fill="#FF8800"/>
<path d="M3 13.3998C3 14.0402 3.277 14.6131 3.7136 14.9992V11.8008C3.277 12.1861 3 12.7594 3 13.3998ZM4.4684 11.3804V15.4189C4.6466 15.4709 4.8348 15.5 5.0286 15.5H5.2234V11.3093C5.1584 11.3036 5.0934 11.2998 5.0274 11.2998C4.833 11.2998 4.646 11.3282 4.4684 11.3804ZM6.1356 11.6425C6.084 11.6078 6.0326 11.5758 5.9778 11.5463V15.5H6.7324V10.2118C6.432 10.6244 6.2226 11.1116 6.1356 11.6425ZM7.4874 9.46821V15.5H8.2422V9.07705C7.9724 9.17263 7.7192 9.30568 7.4874 9.46821ZM8.9968 8.91263V15.5H9.7516V8.93684C9.597 8.91263 9.4378 8.9 9.2756 8.9C9.1812 8.9 9.0882 8.90484 8.9968 8.91263ZM10.9224 9.37705C10.676 9.22337 10.4108 9.10211 10.1292 9.02126V15.5H11.2612V8.89916C11.1376 9.04926 11.024 9.20947 10.9224 9.37705ZM11.639 8.50084V15.5H18.8094V15.4907C20.3192 15.3891 21 14.4032 21 13.2C21 11.9295 20.0874 10.9 18.8594 10.9C18.544 10.9 18.2846 10.9684 18.0104 11.0922C17.814 9.07495 16.1882 7.5 14.1864 7.5C13.2072 7.5 12.3172 7.87747 11.639 8.50084Z" fill="white"/>
</svg>
