<svg width="24" height="24" viewBox="0 0 24 24" fill="none" xmlns="http://www.w3.org/2000/svg">
<path d="M12 24C18.6274 24 24 18.6274 24 12C24 5.37258 18.6274 0 12 0C5.37258 0 0 5.37258 0 12C0 18.6274 5.37258 24 12 24Z" fill="#25D366"/>
<path fill-rule="evenodd" clip-rule="evenodd" d="M12.3955 18.6762H12.3926C11.1984 18.6758 10.0249 18.3761 8.98269 17.8076L5.20001 18.7999L6.21232 15.1023C5.58788 14.0202 5.2593 12.7926 5.25984 11.535C5.2614 7.60075 8.46242 4.3999 12.3955 4.3999C14.3043 4.40073 16.0959 5.14384 17.4431 6.49261C18.7903 7.84131 19.5318 9.63407 19.5311 11.5407C19.5295 15.474 16.3298 18.6746 12.3955 18.6762ZM9.15795 16.5159L9.37452 16.6444C10.2851 17.1848 11.3289 17.4707 12.3931 17.4711H12.3956C15.6644 17.4711 18.325 14.8105 18.3263 11.5403C18.3269 9.95552 17.7106 8.46546 16.5908 7.34441C15.4711 6.22337 13.982 5.60569 12.3979 5.60514C9.12648 5.60514 6.4659 8.26547 6.4646 11.5355C6.46414 12.6561 6.7777 13.7475 7.37138 14.6917L7.5124 14.9161L6.91326 17.1047L9.15795 16.5159ZM15.7462 13.077C15.8706 13.1371 15.9545 13.1776 15.9904 13.2375C16.035 13.3118 16.035 13.6688 15.8865 14.0854C15.7378 14.5018 15.0255 14.8819 14.683 14.9331C14.3758 14.979 13.9871 14.9982 13.56 14.8624C13.301 14.7803 12.9689 14.6706 12.5436 14.4869C10.8721 13.7651 9.74253 12.1451 9.52904 11.839C9.51408 11.8175 9.50362 11.8025 9.49778 11.7947L9.49635 11.7928C9.40199 11.6669 8.76976 10.8234 8.76976 9.95032C8.76976 9.12906 9.17319 8.69859 9.35888 8.50044C9.3716 8.48687 9.3833 8.47438 9.39378 8.46294C9.5572 8.28444 9.75037 8.23981 9.86923 8.23981C9.98808 8.23981 10.1071 8.24091 10.2109 8.24613C10.2238 8.24677 10.2371 8.24669 10.2509 8.24661C10.3548 8.246 10.4843 8.24524 10.6121 8.55219C10.6613 8.67031 10.7332 8.84544 10.8091 9.03015C10.9625 9.40365 11.132 9.81632 11.1618 9.87604C11.2064 9.96529 11.2361 10.0694 11.1767 10.1884C11.1678 10.2063 11.1595 10.2231 11.1516 10.2392C11.107 10.3303 11.0741 10.3974 10.9984 10.4858C10.9686 10.5206 10.9378 10.5581 10.907 10.5956C10.8457 10.6703 10.7843 10.745 10.7309 10.7982C10.6417 10.8871 10.5488 10.9836 10.6528 11.1621C10.7568 11.3406 11.1146 11.9244 11.6446 12.3972C12.2144 12.9054 12.7096 13.1202 12.9606 13.2291C13.0096 13.2503 13.0493 13.2675 13.0784 13.2821C13.2567 13.3714 13.3607 13.3565 13.4647 13.2375C13.5687 13.1185 13.9104 12.7169 14.0292 12.5384C14.1481 12.36 14.267 12.3897 14.4304 12.4492C14.5938 12.5087 15.4704 12.94 15.6487 13.0292C15.6835 13.0467 15.716 13.0624 15.7462 13.077Z" fill="#FDFDFD"/>
</svg>
